<svg xmlns="http://www.w3.org/2000/svg" viewBox="0 0 512 512"><g fill="#ff6a1a"><path d="m150 120 40-95 45 95Zm212 0-40-95-45 95Z"/><path d="M145 145c10-50 65-75 111-75s101 25 111 75c-12 70-52 110-111 110s-99-40-111-110"/><path d="M180 255c0-45 152-45 152 0l18 135c0 45-188 45-188 0Z"/><ellipse cx="205" cy="390" rx="35" ry="45"/><ellipse cx="307" cy="390" rx="35" ry="45"/><path d="M170 340c-90 0-100 110 10 115h170c90-5 105-145-30-145-60 0-105 15-150 30"/></g><path fill="#fff" d="m175 112 17-47 33 55Zm162 0-17-47-33 55Zm-162 73c30 35 132 35 162 0-22 60-42 85-81 90-39-5-59-30-81-90"/><path fill="#fff" d="M220 245c-20 10-35 50-25 100l25-30 15 45 21-30 21 30 15-45 25 30c10-50-5-90-25-100Zm-85 155c-40 35-25 70 50 70 20-15 40-25 65-35-45-15-80-25-115-35"/><path d="M205 175q25-25 45 0m12 0q20-25 45 0" stroke="#111" stroke-width="8" fill="none" stroke-linecap="round"/><path fill="#111" d="m256 190-14 15 14 9 14-9Z"/><circle cx="256" cy="285" r="50" fill="#10253d"/><circle cx="256" cy="260" r="10" fill="#fff"/><rect x="248" y="277" width="18" height="50" rx="10" fill="#fff"/></svg>