<svg xmlns="http://www.w3.org/2000/svg" viewBox="0 0 512 512"><defs><linearGradient id="a" x1="0%" y1="0%" x2="100%" y2="0%"><stop offset="0%" stop-color="#19b5ff"/><stop offset="100%" stop-color="#b14dff"/></linearGradient></defs><g fill="#ff6a1a"><circle cx="256" cy="220" r="150" fill="none" stroke="url(#a)" stroke-width="12"/><g stroke="#19b5ff" stroke-width="8" fill="none" stroke-linecap="round"><path d="M90 180h55l25 20h25"/><circle cx="80" cy="180" r="8"/><path d="M90 240h55l25 20h25"/><circle cx="80" cy="240" r="8"/></g><g stroke="#b14dff" stroke-width="8" fill="none" stroke-linecap="round"><path d="M422 180h-55l-25 20h-25"/><circle cx="432" cy="180" r="8"/><path d="M422 240h-55l-25 20h-25"/><circle cx="432" cy="240" r="8"/></g><path d="m150 120 40-95 45 95Zm212 0-40-95-45 95Z"/><path d="M145 145c10-50 65-75 111-75s101 25 111 75c-12 70-52 110-111 110s-99-40-111-110"/><path d="M180 255c0-45 152-45 152 0l18 135c0 45-188 45-188 0Z"/><ellipse cx="205" cy="390" rx="35" ry="45"/><ellipse cx="307" cy="390" rx="35" ry="45"/><path d="M170 340c-90 0-100 110 10 115h170c90-5 105-145-30-145-60 0-105 15-150 30"/></g><path fill="#fff" d="m175 112 17-47 33 55Zm162 0-17-47-33 55Zm-162 73c30 35 132 35 162 0-22 60-42 85-81 90-39-5-59-30-81-90"/><path fill="#fff" d="M220 245c-20 10-35 50-25 100l25-30 15 45 21-30 21 30 15-45 25 30c10-50-5-90-25-100Zm-85 155c-40 35-25 70 50 70 20-15 40-25 65-35-45-15-80-25-115-35"/><path d="M205 175q25-25 45 0m12 0q20-25 45 0" stroke="#111" stroke-width="8" fill="none" stroke-linecap="round"/><path fill="#111" d="m256 190-14 15 14 9 14-9Z"/></svg>